<svg width="20" height="20" viewBox="0 0 20 20" fill="none" xmlns="http://www.w3.org/2000/svg">
<g clip-path="url(#clip0_14_45785)">
<path d="M12.4997 1.24976H5.83307C5.61213 1.24976 5.40023 1.33753 5.244 1.49376C5.08777 1.64999 5 1.86188 5 2.08282V5.62453L12.4997 9.99931L16.2496 11.5817L19.9995 9.99931V5.62453L12.4997 1.24976Z" fill="#21A366"/>
<path d="M5 5.625H12.4997V9.99978H5V5.625Z" fill="#107C41"/>
<path d="M19.1664 1.24976H12.4998V5.62453H19.9995V2.08282C19.9995 1.86188 19.9117 1.64999 19.7555 1.49376C19.5993 1.33753 19.3874 1.24976 19.1664 1.24976Z" fill="#33C481"/>
<path d="M12.4997 9.99976H5V17.9167C5 18.0261 5.02155 18.1344 5.06341 18.2355C5.10528 18.3365 5.16664 18.4284 5.244 18.5057C5.32136 18.5831 5.41319 18.6444 5.51427 18.6863C5.61534 18.7282 5.72367 18.7497 5.83307 18.7497H19.1668C19.2762 18.7497 19.3846 18.7282 19.4856 18.6863C19.5867 18.6444 19.6785 18.5831 19.7559 18.5057C19.8333 18.4284 19.8946 18.3365 19.9365 18.2355C19.9783 18.1344 19.9999 18.0261 19.9999 17.9167V14.3745L12.4997 9.99976Z" fill="#185C37"/>
<path d="M12.4998 9.99976H19.9995V14.3745H12.4998V9.99976Z" fill="#107C41"/>
<path opacity="0.1" d="M10.4156 4.37476H5V16.2497H10.4156C10.6364 16.2494 10.8481 16.1616 11.0044 16.0057C11.1608 15.8498 11.249 15.6383 11.2499 15.4175V5.20782C11.2492 4.98687 11.1611 4.77517 11.0047 4.61905C10.8484 4.46293 10.6365 4.37509 10.4156 4.37476Z" fill="black"/>
<path opacity="0.2" d="M9.79194 5H5V16.8749H9.79194C10.0125 16.8743 10.2239 16.7864 10.38 16.6305C10.536 16.4746 10.6241 16.2633 10.625 16.0427V5.83307C10.6243 5.61233 10.5364 5.40083 10.3803 5.24474C10.2242 5.08865 10.0127 5.00067 9.79194 5Z" fill="black"/>
<path opacity="0.2" d="M9.79194 5H5V15.6247H9.79194C10.0127 15.624 10.2242 15.536 10.3803 15.38C10.5364 15.2239 10.6243 15.0124 10.625 14.7916V5.83307C10.6243 5.61233 10.5364 5.40083 10.3803 5.24474C10.2242 5.08865 10.0127 5.00067 9.79194 5Z" fill="black"/>
<path opacity="0.2" d="M9.16704 5H5V15.6247H9.16704C9.38777 15.624 9.59928 15.536 9.75537 15.38C9.91145 15.2239 9.99944 15.0124 10.0001 14.7916V5.83307C9.99944 5.61233 9.91145 5.40083 9.75537 5.24474C9.59928 5.08865 9.38777 5.00067 9.16704 5Z" fill="black"/>
<path d="M0.83307 5H9.16799C9.38893 5 9.60083 5.08777 9.75706 5.244C9.91329 5.40023 10.0011 5.61213 10.0011 5.83307V14.168C10.0011 14.3889 9.91329 14.6008 9.75706 14.7571C9.60083 14.9133 9.38893 15.0011 9.16799 15.0011H0.83307C0.723563 15.0011 0.61513 14.9795 0.513975 14.9375C0.412819 14.8956 0.320926 14.8341 0.243552 14.7566C0.166178 14.6791 0.104841 14.5871 0.0630499 14.4859C0.021259 14.3847 -0.00016588 14.2762 9.67033e-07 14.1667V5.83307C9.67033e-07 5.61213 0.0877705 5.40023 0.244001 5.244C0.400232 5.08777 0.612126 5 0.83307 5Z" fill="#107C41"/>
<path d="M2.20801 13.1247L4.23039 9.99083L2.37809 6.87476H3.86865L4.87984 8.86667C4.97263 9.05537 5.03666 9.1964 5.07192 9.28977H5.08504C5.1516 9.13886 5.22141 8.99219 5.29447 8.84975L6.37504 6.87476H7.74333L5.84322 9.97348L7.78944 13.1247H6.33485L5.16669 10.9364C5.11173 10.8433 5.06515 10.7455 5.0275 10.6441H5.01015C4.97607 10.7433 4.93078 10.8382 4.87518 10.9271L3.67487 13.1247H2.20801Z" fill="white"/>
</g>
<defs>
<clipPath id="clip0_14_45785">
<rect width="20" height="20" fill="white"/>
</clipPath>
</defs>
</svg>
