<svg width="145" height="38" viewBox="0 0 145 38" fill="none" xmlns="http://www.w3.org/2000/svg">
<g filter="url(#filter0_dd_98_1224)">
<g clip-path="url(#clip0_98_1224)">
<rect x="3" y="2" width="32" height="32" rx="8" fill="white"/>
<rect x="3" y="2" width="32" height="32" rx="8" fill="url(#paint0_linear_98_1224)"/>
<path fill-rule="evenodd" clip-rule="evenodd" d="M19 4.03885C11.2895 4.03885 5.03884 10.2895 5.03884 18C5.03884 25.7106 11.2895 31.9612 19 31.9612C26.7105 31.9612 32.9612 25.7106 32.9612 18C32.9612 10.2895 26.7105 4.03885 19 4.03885ZM4.96117 18C4.96117 10.2466 11.2466 3.96118 19 3.96118C26.7534 3.96118 33.0388 10.2466 33.0388 18C33.0388 25.7535 26.7534 32.0389 19 32.0389C11.2466 32.0389 4.96117 25.7535 4.96117 18Z" fill="#D0D5DD"/>
<path fill-rule="evenodd" clip-rule="evenodd" d="M19 14.0779C16.8338 14.0779 15.0777 15.834 15.0777 18.0002C15.0777 20.1665 16.8338 21.9226 19 21.9226C21.1663 21.9226 22.9223 20.1665 22.9223 18.0002C22.9223 15.834 21.1663 14.0779 19 14.0779ZM15 18.0002C15 15.7911 16.7909 14.0002 19 14.0002C21.2092 14.0002 23 15.7911 23 18.0002C23 20.2094 21.2092 22.0002 19 22.0002C16.7909 22.0002 15 20.2094 15 18.0002Z" fill="#D0D5DD"/>
<path fill-rule="evenodd" clip-rule="evenodd" d="M19 15.3201C17.5201 15.3201 16.3204 16.5198 16.3204 17.9997C16.3204 19.4796 17.5201 20.6793 19 20.6793C20.4799 20.6793 21.6796 19.4796 21.6796 17.9997C21.6796 16.5198 20.4799 15.3201 19 15.3201ZM16.2427 17.9997C16.2427 16.4769 17.4772 15.2424 19 15.2424C20.5228 15.2424 21.7573 16.4769 21.7573 17.9997C21.7573 19.5225 20.5228 20.757 19 20.757C17.4772 20.757 16.2427 19.5225 16.2427 17.9997Z" fill="#D0D5DD"/>
<path d="M18.9612 2H19.0388V34H18.9612V2Z" fill="#D0D5DD"/>
<path d="M35 17.9609L35 18.0386L3 18.0386L3 17.9609L35 17.9609Z" fill="#D0D5DD"/>
<path d="M29.602 2H29.6796V34H29.602V2Z" fill="#D0D5DD"/>
<path d="M13.6408 2H13.7184V34H13.6408V2Z" fill="#D0D5DD"/>
<path d="M24.2816 2H24.3592V34H24.2816V2Z" fill="#D0D5DD"/>
<path d="M8.32037 2H8.39804V34H8.32037V2Z" fill="#D0D5DD"/>
<path d="M35 28.6016L35 28.6792L3 28.6792L3 28.6016L35 28.6016Z" fill="#D0D5DD"/>
<path d="M35 12.6406L35 12.7183L3 12.7183L3 12.6406L35 12.6406Z" fill="#D0D5DD"/>
<path d="M35 23.2812L35 23.3589L3 23.3589L3 23.2812L35 23.2812Z" fill="#D0D5DD"/>
<path d="M35 7.32031L35 7.39798L3 7.39798L3 7.32031L35 7.32031Z" fill="#D0D5DD"/>
<g filter="url(#filter1_dd_98_1224)">
<circle cx="19" cy="18" r="8" fill="url(#paint1_linear_98_1224)"/>
</g>
<path d="M3 18H35V21.2C35 25.6804 35 27.9206 34.1281 29.6319C33.3611 31.1372 32.1372 32.3611 30.6319 33.1281C28.9206 34 26.6804 34 22.2 34H15.8C11.3196 34 9.07937 34 7.36808 33.1281C5.86278 32.3611 4.63893 31.1372 3.87195 29.6319C3 27.9206 3 25.6804 3 21.2V18Z" fill="white" fill-opacity="0.2"/>
</g>
<rect x="3.1" y="2.1" width="31.8" height="31.8" rx="7.9" stroke="#D0D5DD" stroke-width="0.2"/>
</g>
<path d="M44.598 25V10.4545H46.7926V17.4006H46.9702L53.071 10.4545H55.8338L49.9673 17.0028L55.8551 25H53.2131L48.5114 18.5014L46.7926 20.4759V25H44.598ZM59.108 25H56.7784L62.0128 10.4545H64.5483L69.7827 25H67.4531L63.3409 13.0966H63.2273L59.108 25ZM59.4986 19.304H67.0554V21.1506H59.4986V19.304ZM77.5366 10.4545H79.7241V20.767C79.7241 21.6998 79.5394 22.4976 79.1701 23.1605C78.8055 23.8234 78.2918 24.33 77.6289 24.6804C76.966 25.026 76.1895 25.1989 75.2994 25.1989C74.4802 25.1989 73.744 25.0497 73.0906 24.7514C72.4419 24.4531 71.9281 24.0199 71.5494 23.4517C71.1753 22.8788 70.9883 22.1828 70.9883 21.3636H73.1687C73.1687 21.7661 73.261 22.1141 73.4457 22.4077C73.6351 22.7012 73.8931 22.9309 74.2198 23.0966C74.5513 23.2576 74.93 23.3381 75.3562 23.3381C75.8202 23.3381 76.2132 23.241 76.5352 23.0469C76.8619 22.848 77.1104 22.5568 77.2809 22.1733C77.4513 21.7898 77.5366 21.321 77.5366 20.767V10.4545ZM84.147 25H81.8175L87.0518 10.4545H89.5874L94.8217 25H92.4922L88.38 13.0966H88.2663L84.147 25ZM84.5376 19.304H92.0945V21.1506H84.5376V19.304ZM96.9222 25V10.4545H102.107C103.234 10.4545 104.169 10.6487 104.912 11.0369C105.66 11.4252 106.219 11.9626 106.588 12.6491C106.958 13.331 107.142 14.1193 107.142 15.0142C107.142 15.9044 106.955 16.688 106.581 17.3651C106.212 18.0374 105.653 18.5606 104.905 18.9347C104.162 19.3087 103.227 19.4957 102.1 19.4957H98.1722V17.6065H101.901C102.611 17.6065 103.189 17.5047 103.634 17.3011C104.084 17.0975 104.413 16.8016 104.621 16.4134C104.829 16.0251 104.934 15.5587 104.934 15.0142C104.934 14.465 104.827 13.9891 104.614 13.5866C104.406 13.1842 104.077 12.8764 103.627 12.6634C103.182 12.4455 102.597 12.3366 101.873 12.3366H99.1168V25H96.9222ZM104.103 18.4375L107.696 25H105.196L101.674 18.4375H104.103ZM119.167 10.4545H121.368V20.0213C121.368 21.0393 121.129 21.9413 120.651 22.7273C120.173 23.5085 119.5 24.1241 118.634 24.5739C117.767 25.0189 116.752 25.2415 115.587 25.2415C114.427 25.2415 113.414 25.0189 112.547 24.5739C111.681 24.1241 111.008 23.5085 110.53 22.7273C110.052 21.9413 109.813 21.0393 109.813 20.0213V10.4545H112.007V19.8438C112.007 20.5019 112.152 21.0866 112.441 21.598C112.734 22.1094 113.149 22.5118 113.684 22.8054C114.219 23.0942 114.853 23.2386 115.587 23.2386C116.326 23.2386 116.962 23.0942 117.498 22.8054C118.037 22.5118 118.449 22.1094 118.733 21.598C119.022 21.0866 119.167 20.5019 119.167 19.8438V10.4545Z" fill="#101828"/>
<defs>
<filter id="filter0_dd_98_1224" x="0" y="0" width="38" height="38" filterUnits="userSpaceOnUse" color-interpolation-filters="sRGB">
<feFlood flood-opacity="0" result="BackgroundImageFix"/>
<feColorMatrix in="SourceAlpha" type="matrix" values="0 0 0 0 0 0 0 0 0 0 0 0 0 0 0 0 0 0 127 0" result="hardAlpha"/>
<feOffset dy="1"/>
<feGaussianBlur stdDeviation="1"/>
<feColorMatrix type="matrix" values="0 0 0 0 0.0627451 0 0 0 0 0.0941176 0 0 0 0 0.156863 0 0 0 0.06 0"/>
<feBlend mode="normal" in2="BackgroundImageFix" result="effect1_dropShadow_98_1224"/>
<feColorMatrix in="SourceAlpha" type="matrix" values="0 0 0 0 0 0 0 0 0 0 0 0 0 0 0 0 0 0 127 0" result="hardAlpha"/>
<feOffset dy="1"/>
<feGaussianBlur stdDeviation="1.5"/>
<feColorMatrix type="matrix" values="0 0 0 0 0.0627451 0 0 0 0 0.0941176 0 0 0 0 0.156863 0 0 0 0.1 0"/>
<feBlend mode="normal" in2="effect1_dropShadow_98_1224" result="effect2_dropShadow_98_1224"/>
<feBlend mode="normal" in="SourceGraphic" in2="effect2_dropShadow_98_1224" result="shape"/>
</filter>
<filter id="filter1_dd_98_1224" x="8" y="8" width="22" height="22" filterUnits="userSpaceOnUse" color-interpolation-filters="sRGB">
<feFlood flood-opacity="0" result="BackgroundImageFix"/>
<feColorMatrix in="SourceAlpha" type="matrix" values="0 0 0 0 0 0 0 0 0 0 0 0 0 0 0 0 0 0 127 0" result="hardAlpha"/>
<feOffset dy="1"/>
<feGaussianBlur stdDeviation="1"/>
<feColorMatrix type="matrix" values="0 0 0 0 0.0627451 0 0 0 0 0.0941176 0 0 0 0 0.156863 0 0 0 0.06 0"/>
<feBlend mode="normal" in2="BackgroundImageFix" result="effect1_dropShadow_98_1224"/>
<feColorMatrix in="SourceAlpha" type="matrix" values="0 0 0 0 0 0 0 0 0 0 0 0 0 0 0 0 0 0 127 0" result="hardAlpha"/>
<feOffset dy="1"/>
<feGaussianBlur stdDeviation="1.5"/>
<feColorMatrix type="matrix" values="0 0 0 0 0.0627451 0 0 0 0 0.0941176 0 0 0 0 0.156863 0 0 0 0.1 0"/>
<feBlend mode="normal" in2="effect1_dropShadow_98_1224" result="effect2_dropShadow_98_1224"/>
<feBlend mode="normal" in="SourceGraphic" in2="effect2_dropShadow_98_1224" result="shape"/>
</filter>
<linearGradient id="paint0_linear_98_1224" x1="19" y1="2" x2="19" y2="34" gradientUnits="userSpaceOnUse">
<stop stop-color="white"/>
<stop offset="1" stop-color="#D0D5DD"/>
</linearGradient>
<linearGradient id="paint1_linear_98_1224" x1="15" y1="26" x2="23" y2="10" gradientUnits="userSpaceOnUse">
<stop stop-color="#53389E"/>
<stop offset="1" stop-color="#6941C6"/>
</linearGradient>
<clipPath id="clip0_98_1224">
<rect x="3" y="2" width="32" height="32" rx="8" fill="white"/>
</clipPath>
</defs>
</svg>
